<?xml version="1.0" encoding="utf-8"?>
<!-- Generator: Adobe Illustrator 25.2.0, SVG Export Plug-In . SVG Version: 6.00 Build 0)  -->
<svg version="1.1" id="Layer_1" xmlns="http://www.w3.org/2000/svg" xmlns:xlink="http://www.w3.org/1999/xlink" x="0px" y="0px"
	 viewBox="0 0 512 73.7" style="enable-background:new 0 0 512 73.7;" xml:space="preserve">
<style type="text/css">
	.st0{fill:#1D2B52;}
	.st1{fill:#2471A3;}
</style>
<path class="st0" d="M63.5,23.3C73.8,9.2,94,10.8,98.8,25c1.9-3.2,4.5-5.6,7.4-7.6c5.1-3.4,10.7-4.6,16.7-3.6
	c7.2,1.2,11.4,5.7,13.2,12.5c0.8,2.9,1.2,6,1.2,9c0.1,9.9,0,19.8,0.1,29.7c0,2-0.6,3.6-2.4,4.4c-3,1.5-6.2-0.6-6.2-4.2
	c0-9.5,0-19,0-28.5c0-1.5-0.1-3-0.3-4.4c-1.3-8.4-6.9-12-15.3-10.6c-6.8,1.1-13.3,7.2-13,15.8c0.3,9,0.1,18,0.1,27
	c0,1.7-0.1,3.4-1.6,4.5c-1.4,1.1-3,1.2-4.6,0.4c-1.8-0.8-2.4-2.4-2.4-4.3c0-9.3,0-18.6,0-27.9c0-1.8-0.1-3.6-0.4-5.3
	c-1.3-8.2-6.8-11.7-15.2-10.1c-7.7,1.5-12.5,7.5-12.5,15.4c0,9.3,0,18.5,0,27.8c0,3-1.6,4.9-4.2,5c-2.7,0-4.4-1.9-4.4-5
	c0-15.2,0-30.4,0-45.7c0-3.2,1.6-4.9,4.4-4.8c2.4,0,4,1.6,4.1,4C63.6,19.9,63.5,21.4,63.5,23.3z"/>
<path class="st0" d="M398.1,21.6c0-1.2,0-2.5,0-3.7c0.1-2.4,1.8-4.1,4.3-4.1c2.4,0,4.3,1.7,4.3,4.1c0,15.9,0,31.9,0,47.8
	c0,2.4-1.8,4.2-4.2,4.2c-2.4,0-4.2-1.7-4.3-4.1c-0.1-1.4,0-2.7,0-4.3c-0.4,0.2-0.6,0.3-0.7,0.4c-10.2,13.3-30.1,11.6-39.1-2.8
	c-7.1-11.3-6-28,2.5-37.8c9.6-11.1,26.7-11.2,36.4-0.1c0.2,0.2,0.3,0.4,0.4,0.6C397.8,21.7,398,21.7,398.1,21.6z M399,41.8
	c-0.7-2.9-1-6-2-8.8c-2.4-6.2-6.6-10.6-13.4-11.8c-6.8-1.2-12.5,1-16.8,6.3c-6.6,8.1-6.2,21.9,0.7,29.7c6.5,7.4,17.9,7.8,24.9,0.9
	C396.8,53.7,398.6,48.1,399,41.8z"/>
<path class="st0" d="M468.8,43.4c0,11.9,10.3,20.8,22,19.6c4.7-0.5,8.7-2.3,12-5.6c0.4-0.4,0.9-0.8,1.4-1.1c1.8-0.9,3.7-0.6,4.9,0.8
	c1.2,1.5,1.1,3.5-0.4,5.1c-3.9,4.2-8.7,7.2-14.4,8.2c-10.9,1.9-20.5-0.6-27.9-9.4c-3.5-4.1-5.3-9-5.8-14.4
	c-0.7-7.9,0.2-15.5,4.8-22.3c6-8.9,16.5-13.1,26.7-10.7c10.4,2.4,18.1,10.9,19.6,21.5c0.2,1.3,0.3,2.6,0.3,3.9
	c0,2.7-1.5,4.3-4.3,4.3c-3.7,0-7.4,0-11.1,0c-8.5,0-17.1,0-25.6,0C470.3,43.4,469.6,43.4,468.8,43.4z M502.9,35.9
	c0.2-8-7.9-15.2-16.6-15c-9.1,0.3-16.1,6.8-16.7,15C480.6,35.9,491.7,35.9,502.9,35.9z"/>
<path class="st0" d="M21.5,12.9c7.3,0.3,13.6,1.9,18.3,7.4c2.2,2.5,1.6,5.6-1.3,6.5c-1.6,0.5-3,0-4.2-1.2
	c-5.1-5.2-11.2-6.5-18.1-4.3c-2.9,0.9-5.1,2.8-5.5,6.2c-0.4,3.5,1.2,6.1,4.2,7.4c3.2,1.5,6.7,2.5,10,3.7c3,1.1,6.2,1.9,9.1,3.2
	c5.1,2.3,8,6.4,8.3,12.1c0.3,6.3-2.3,11-7.7,14.1c-7.2,4-14.7,3.8-22.4,1.5C7.7,67.9,4,65.2,1,61.3c-1.1-1.4-1.4-3.1-0.5-4.7
	c0.9-1.5,2.5-2.2,4.2-1.7c1,0.3,2,1,2.7,1.8c4.4,4.8,9.7,7.5,16.3,7.2c3.2-0.2,6.3-0.8,8.7-3.1c3.2-3,3.1-8.4-0.6-10.8
	c-2.9-1.8-6.2-2.9-9.4-4.1c-3.8-1.4-7.9-2.4-11.6-4.1c-8.7-4.2-9.9-12.6-7-19.1c2.5-5.6,7.5-8.1,13.2-9.3
	C18.7,13.1,20.4,13,21.5,12.9z"/>
<path class="st0" d="M328.1,13c2.6,0,7.2,0.5,11.5,2.6c1.8,0.9,3.4,2.2,4.7,3.7c1.5,1.7,1,4.5-0.5,5.9c-1.3,1.2-3.8,1.3-5.4-0.3
	c-4-3.9-8.9-4.3-14-3.9c-10.9,0.9-18.9,10.8-17.8,23c0.7,7.9,4.2,14.3,11.8,17.4c7.1,2.9,14.2,2.5,20.5-2.8c1.5-1.3,4.1-1.3,5.4,0
	c1.5,1.4,1.7,4,0.2,5.5c-1.4,1.5-3.1,2.9-5,3.7c-10.6,4.5-21.1,4.9-30.8-2.3c-5.2-3.8-8.2-9.2-9.7-15.4c-1.7-7.2-1.4-14.4,1.7-21.2
	C305.2,18.6,314.4,12.9,328.1,13z"/>
<path class="st0" d="M267.1,22.6c-2.3,0-4.3,0-6.4,0c-2.6,0-4.4-1.5-4.5-3.8c-0.1-2.4,1.5-4,4.2-4c2.1-0.1,4.3,0,6.6,0
	c0-3.3-0.1-6.4,0.1-9.5c0.1-1.3,0.6-2.8,1.4-3.9c1-1.4,2.8-1.6,4.4-1c1.7,0.6,2.6,1.9,2.6,3.7c0.1,3,0.1,6,0,9
	c0,1.3,0.4,1.8,1.7,1.7c2.5-0.1,5,0,7.5,0c2.9,0,4.6,1.6,4.6,4.1c0,2.4-1.8,3.8-4.6,3.8c-3,0-6,0-9.1,0c0,0.8-0.1,1.4-0.1,2
	c0,10.2,0,20.4,0,30.6c0,1,0.1,1.9,0.2,2.9c0.4,3.1,3.1,4.9,6.1,4.2c0.2,0,0.3-0.1,0.5-0.2c2.5-0.8,3.9-0.4,4.7,1.4
	c0.9,2,0.1,3.9-2,5.1c-7.7,4.5-17.5-0.5-17.8-9.3c-0.4-11.4-0.2-22.8-0.3-34.2C267.1,24.3,267.1,23.5,267.1,22.6z"/>
<path class="st0" d="M227.9,25.4c1.7-2.3,3.1-4.6,5-6.6c3.7-3.9,8.3-5.9,13.7-5.8c0.9,0,1.9,0.2,2.8,0.5c3,1,4,3.1,3,5.8
	c-0.8,2.2-3.2,3.1-5.9,1.9c-2.8-1.2-5.5-0.9-8.1,0.4c-3.1,1.5-5.5,4-7.3,6.9c-2.2,3.5-3.2,7.3-3.2,11.4c0,8.4,0,16.7,0,25.1
	c0,3-1.6,4.9-4.2,4.9c-2.7,0-4.3-1.9-4.3-5c0-15.2,0-30.4,0-45.7c0-3.1,1.6-4.8,4.3-4.8c2.7,0,4.2,1.7,4.2,4.8
	C227.9,21.3,227.9,23.3,227.9,25.4z"/>
<path class="st0" d="M431.3,25.1c1.9-2.4,3.5-4.9,5.5-6.9c3.6-3.6,8.1-5.4,13.3-5.2c1,0,2,0.3,2.9,0.6c2.8,1.1,3.7,3.1,2.7,5.7
	c-0.9,2.2-3.1,3.1-5.7,2c-2.5-1.1-5-1.1-7.5-0.1c-3.9,1.6-6.6,4.6-8.7,8.2c-1.8,3.1-2.7,6.5-2.6,10.1c0.1,8.4,0,16.8,0,25.2
	c0,3.2-1.6,5.1-4.2,5.2c-2.3,0-4.2-1.6-4.3-3.9c-0.1-1.4,0-2.9,0-4.3c0-14.2,0-28.4,0-42.6c0-3.1,1.7-4.8,4.5-4.7
	c2.4,0.1,3.9,1.8,4,4.6C431.3,21,431.3,23,431.3,25.1z"/>
<path class="st1" d="M174.3,21.3c1-1.4,1.8-2.7,2.8-4c2.4-3,5.1-5.5,8.7-6.9c4.6-1.8,9-1.4,13.2,1.1c3.9,2.3,6.4,5.7,8.1,9.8
	c2.2,5,1.9,10.1,0.5,15.2c-1.7,6.1-4.4,11.8-7.4,17.3c-3.2,5.8-6.8,11.4-10.6,16.8c-2.2,3.1-6.1,4.1-9.3,2.1
	c-8.5-5.2-16.8-10.8-24.1-17.5c-3.3-3-6.4-6.2-8.8-10.1c-4.2-6.7-4.3-13.8-1-20.8c3.2-6.6,9.8-9.6,17.2-8c3.4,0.7,6.5,2.3,9.4,4.2
	c0.3,0.2,0.6,0.4,1,0.7C174.1,21.2,174.2,21.2,174.3,21.3z"/>
</svg>
